<svg width="35" height="24" viewBox="0 0 35 24" fill="none" xmlns="http://www.w3.org/2000/svg">
<path d="M34.1387 23.1585H0.598953C0.268199 23.1585 0 22.8856 0 22.549V0.609461C0 0.272904 0.268199 0 0.598953 0H34.1388C34.4695 0 34.7377 0.272904 34.7377 0.609461V22.549C34.7377 22.8856 34.4695 23.1585 34.1387 23.1585Z" fill="#41479B"/>
<path d="M34.7376 0.609461C34.7376 0.272904 34.4694 0 34.1386 0H31.459L20.3634 7.39714V0H14.3741V7.39714L3.2785 0H0.598952C0.268199 0 0 0.272904 0 0.609461V2.18565L9.51952 8.53204H0V14.6264H9.51952L0 20.9728V22.549C0 22.8856 0.268199 23.1585 0.598952 23.1585H3.27856L14.3742 15.7613V23.1585H20.3635V15.7613L31.4592 23.1585H34.1388C34.4695 23.1585 34.7377 22.8856 34.7377 22.549V20.9728L25.2182 14.6264H34.7376V8.53211H25.2181L34.7376 2.18565V0.609461Z" fill="#F5F5F5"/>
<path d="M34.9999 9.6552H19.3103V0H15.6896V9.6552H0V13.2758H15.6896V22.931H19.3103V13.2758H34.9999V9.6552Z" fill="#FF4B55"/>
<path d="M12.2323 14.4827L0.0166016 22.4122C0.0593261 22.7036 0.299609 22.931 0.602919 22.931H1.4341L14.449 14.4828H12.2323V14.4827Z" fill="#FF4B55"/>
<path d="M23.6787 14.4827H21.4619L34.4579 22.9185C34.7608 22.8863 34.9998 22.6389 34.9998 22.3275V21.8313L23.6787 14.4827Z" fill="#FF4B55"/>
<path d="M0 1.26965L11.0591 8.44833H13.2758L0.351572 0.0588684C0.145127 0.154776 0 0.360879 0 0.603486V1.26965Z" fill="#FF4B55"/>
<path d="M22.7343 8.44831L34.9793 0.499699C34.9285 0.217922 34.6933 6.10352e-05 34.3968 6.10352e-05H33.5323L20.5176 8.44831H22.7343Z" fill="#FF4B55"/>
</svg>
