<svg width="201" height="71" viewBox="0 0 201 71" fill="none" xmlns="http://www.w3.org/2000/svg">
<rect width="201" height="71" fill="white"/>
<g clip-path="url(#clip0)">
<path fill-rule="evenodd" clip-rule="evenodd" d="M106.887 26.7625L96.4749 32.5394C95.8995 32.8616 95.2227 32.5616 95.2227 31.9617V28.9177C95.2227 28.1623 95.6288 27.3513 96.3733 26.9403L102.115 23.7741C102.623 23.4964 102.939 22.9631 102.939 22.2077V0.833235C102.939 0.22222 103.627 -0.211046 104.225 0.122235L106.966 1.67755C107.485 1.9775 108.004 2.76627 108.004 3.45505V24.785C107.982 25.6071 107.474 26.4403 106.887 26.7625ZM96.3395 10.454L99.0921 8.93197C99.6223 8.64312 100.277 9.03195 100.277 9.5652V19.6525C100.277 20.1524 99.6223 20.5413 99.0921 20.2524L96.3959 18.7527C95.6852 18.3638 95.2114 17.5751 95.2114 16.7419V12.4759C95.2226 11.7871 95.516 10.9094 96.3395 10.454ZM99.0695 0.155563C99.6336 -0.155499 100.288 0.22222 100.288 0.844344V3.97719C100.288 4.75484 99.7803 5.52139 99.1711 5.85467L93.4177 9.04306C92.8987 9.33191 92.5828 9.95403 92.5828 10.5206V18.5082C92.5828 19.2415 92.831 19.6636 93.3951 19.9858L97.242 22.1188C97.7384 22.3965 97.7158 23.1631 97.2533 23.4186L93.2936 25.6182C92.7859 25.9071 92.5828 26.5736 92.5828 27.1847V32.1839C92.5828 32.706 91.9624 33.1615 91.4096 32.8504L88.657 31.3507C87.9575 30.973 87.5289 30.162 87.5289 29.3288V7.86547C87.5289 6.98783 88.0478 6.22128 88.7021 5.86578L99.0695 0.155563ZM80.9632 10.1873L83.6256 8.67645C84.1558 8.3765 84.8665 8.70978 84.8665 9.39856V31.0285C84.8665 31.6617 85.2049 32.3727 85.7013 32.6394L99.0357 40.0049C99.9382 40.5048 100.277 41.1047 100.277 41.7713V44.6819C100.277 45.3263 99.5998 45.8484 99.0357 45.5374L80.9632 35.4945C80.2637 35.1056 79.8125 34.3835 79.8125 33.517V12.187C79.8125 11.4871 80.2299 10.6095 80.9632 10.1873ZM122.14 35.6056L104.101 45.604C103.672 45.8484 102.928 45.5707 102.928 44.893V41.8379C102.928 41.0269 103.379 40.2271 103.954 39.9049L117.492 32.4061C118.078 32.0839 118.383 31.6173 118.372 30.9619L118.327 9.29858C118.327 8.67645 118.936 8.30984 119.466 8.59869L122.264 10.1429C122.895 10.4873 123.392 11.2872 123.392 11.9537V33.5281C123.392 34.4835 122.907 35.1723 122.14 35.6056ZM111.975 4.41045L114.694 5.96576C115.247 6.27683 115.687 7.0767 115.687 7.79881L115.653 29.2177C115.653 30.0398 115.247 30.5952 114.322 31.1174L102.296 37.8386C101.619 38.2163 101.111 38.2829 100.389 37.8719L97.7271 36.361C97.1179 36.0166 97.1517 35.2056 97.6481 34.9279L109.775 28.1956C110.272 27.9179 110.622 27.4513 110.622 26.7514V5.177C110.633 4.44378 111.298 4.02162 111.975 4.41045Z" fill="#3E8834"/>
<path fill-rule="evenodd" clip-rule="evenodd" d="M60.6132 70.5334C60.2071 70.3556 59.8799 70.1112 59.643 69.8224C59.4061 69.5224 59.2369 69.1891 59.1354 68.8225C59.0451 68.4448 59 68.0671 59 67.6783V59.2574C59 59.124 59.0338 59.0352 59.0902 58.9796C59.1579 58.9241 59.2482 58.9019 59.3948 58.9019H61.2224C61.3916 58.9019 61.5044 58.9241 61.5608 58.9685C61.606 59.013 61.6398 59.1129 61.6398 59.2574V67.5005C61.6398 67.9338 61.7413 68.2226 61.9557 68.367C62.17 68.5115 62.4521 68.5892 62.7905 68.5892H67.1676C67.2917 68.5892 67.3819 68.6114 67.4271 68.6448C67.4722 68.6892 67.4948 68.7781 67.4948 68.9447V70.4556C67.4948 70.6889 67.3819 70.8111 67.1676 70.8111H62.1813C61.5496 70.8111 61.0193 70.7222 60.6132 70.5334Z" fill="#585857"/>
<path fill-rule="evenodd" clip-rule="evenodd" d="M72.1076 59.5685C72.1076 59.9684 71.961 60.2906 71.6902 60.5683C71.4082 60.835 71.0697 60.9683 70.6636 60.9683C70.2688 60.9683 69.9416 60.835 69.6596 60.5683C69.3776 60.3017 69.2422 59.9684 69.2422 59.5685C69.2422 59.3685 69.276 59.1797 69.355 59.013C69.434 58.8464 69.5355 58.6908 69.6709 58.5686C69.8062 58.4464 69.9529 58.3465 70.1334 58.2687C70.3026 58.1909 70.4944 58.1576 70.6862 58.1576C70.878 58.1576 71.0697 58.1909 71.2502 58.2687C71.4307 58.3465 71.5774 58.4464 71.7128 58.5686C71.8482 58.6908 71.9497 58.8353 72.0287 59.013C72.0738 59.1685 72.1076 59.3574 72.1076 59.5685ZM71.882 70.5001C71.882 70.6223 71.8594 70.7112 71.8143 70.7445C71.7692 70.7889 71.6677 70.8001 71.5097 70.8001H69.7498C69.6257 70.8001 69.5355 70.7778 69.4678 70.7445C69.4114 70.7001 69.3776 70.6223 69.3776 70.5001V62.1903C69.3776 62.0681 69.4001 61.9792 69.4678 61.9459C69.5242 61.9015 69.6145 61.8903 69.7498 61.8903H71.5097C71.6677 61.8903 71.7692 61.9126 71.8143 61.9459C71.8594 61.9903 71.882 62.0681 71.882 62.1903V70.5001Z" fill="#585857"/>
<path fill-rule="evenodd" clip-rule="evenodd" d="M80.2293 60.2571C80.2068 60.3571 80.1729 60.4238 80.1165 60.446C80.0601 60.4682 79.9924 60.4682 79.9022 60.446C79.7104 60.4127 79.496 60.3793 79.2704 60.3571C79.0448 60.3349 78.8643 60.3238 78.7289 60.3238C78.3341 60.3238 78.0859 60.4016 77.9618 60.5571C77.8377 60.7126 77.7813 60.9015 77.7813 61.1237V61.8902H79.8458C79.9473 61.8902 80.015 61.9124 80.0488 61.9458C80.0827 61.9791 80.1052 62.0569 80.1052 62.1679V63.4789C80.1052 63.5677 80.094 63.6344 80.0601 63.6788C80.0375 63.7233 79.9473 63.7455 79.8119 63.7455H77.7813V70.5C77.7813 70.6333 77.7587 70.7222 77.7023 70.7555C77.6572 70.7888 77.5557 70.811 77.4316 70.811H75.6379C75.5251 70.811 75.4348 70.7888 75.3671 70.7555C75.2994 70.7222 75.2769 70.6333 75.2769 70.4889V63.7455H74.0134C73.8893 63.7455 73.8103 63.7233 73.7877 63.6677C73.7652 63.6122 73.7539 63.5455 73.7539 63.4566V62.4901C73.7539 62.3901 73.7765 62.3124 73.8103 62.2568C73.8442 62.2013 73.9344 62.1679 74.0585 62.1346L75.2656 61.8569V60.8904C75.2656 60.1127 75.4912 59.4795 75.9312 58.9796C76.3712 58.4796 77.0931 58.2352 78.0746 58.2352C78.1536 58.2352 78.2777 58.2352 78.4582 58.2463C78.6274 58.2463 78.8192 58.2686 79.0222 58.2797C79.2253 58.3019 79.4509 58.3241 79.6653 58.3685C79.8909 58.413 80.1052 58.4574 80.3083 58.513C80.4324 58.5574 80.5001 58.6018 80.5114 58.6574C80.5226 58.7018 80.5114 58.7796 80.5001 58.8685L80.2293 60.2571Z" fill="#585857"/>
<path fill-rule="evenodd" clip-rule="evenodd" d="M85.862 61.6682C87.2044 61.6682 88.2197 62.0015 88.8853 62.6681C89.5622 63.3346 89.9006 64.2789 89.9006 65.5121C89.9006 66.1009 89.7878 66.5008 89.5622 66.723C89.3253 66.9341 89.0094 67.0452 88.6146 67.0452H84.2036C84.2149 67.4118 84.2713 67.7117 84.3841 67.945C84.4856 68.1783 84.6323 68.3783 84.8241 68.5227C85.0046 68.6671 85.2189 68.7671 85.4671 68.8338C85.7153 68.8893 85.9861 68.9115 86.2681 68.9115C86.5952 68.9115 86.9337 68.8782 87.2834 68.7893C87.6331 68.7116 87.949 68.6116 88.2536 68.4783C88.389 68.4338 88.4792 68.4227 88.5356 68.4338C88.592 68.456 88.6371 68.5005 88.6823 68.6005L89.235 69.8225C89.2802 69.9225 89.2915 70.0002 89.2576 70.0558C89.2238 70.1113 89.1674 70.1669 89.0771 70.2224C88.6484 70.4891 88.1633 70.689 87.5993 70.8112C87.0352 70.9334 86.505 70.989 86.0312 70.989C84.5195 70.989 83.4139 70.6224 82.6807 69.8892C81.9587 69.1559 81.5977 67.9894 81.5977 66.3897C81.5977 65.6454 81.6992 64.9788 81.9022 64.39C82.1053 63.8012 82.3873 63.3124 82.7596 62.9014C83.1319 62.4903 83.5832 62.1904 84.1021 61.9793C84.6097 61.7793 85.1964 61.6682 85.862 61.6682ZM85.9071 63.7123C85.4333 63.7123 85.0497 63.879 84.7564 64.2012C84.4631 64.5344 84.2826 64.9455 84.2375 65.4565H87.4639C87.4639 65.2121 87.4413 64.9788 87.3849 64.7566C87.3285 64.5455 87.2496 64.3567 87.1367 64.2012C87.0239 64.0456 86.866 63.9234 86.6742 63.8345C86.4711 63.7568 86.223 63.7123 85.9071 63.7123Z" fill="#585857"/>
<path fill-rule="evenodd" clip-rule="evenodd" d="M99.9163 70.7444C99.8712 70.7889 99.7584 70.8111 99.5892 70.8111H97.7616C97.6262 70.8111 97.5247 70.7889 97.457 70.7333C97.3893 70.6778 97.3555 70.5889 97.3555 70.4556V62.0458C97.3555 61.6348 97.4119 61.2459 97.5134 60.8682C97.6262 60.4905 97.8067 60.1572 98.0436 59.8684C98.2918 59.5684 98.619 59.3351 99.0138 59.1685C99.4199 58.9907 99.9163 58.9019 100.514 58.9019H105.546C105.692 58.9019 105.794 58.9352 105.828 58.9907C105.862 59.0463 105.884 59.1574 105.884 59.3129V60.7571C105.884 60.9015 105.862 61.0015 105.805 61.0571C105.749 61.1126 105.67 61.1348 105.534 61.1348H101.067C100.616 61.1348 100.322 61.2348 100.176 61.4348C100.029 61.6348 99.9502 61.8903 99.9502 62.1902V63.7566H104.846C104.982 63.7566 105.072 63.7789 105.117 63.8344C105.162 63.89 105.173 64.0011 105.173 64.1677V65.4897C105.173 65.623 105.151 65.723 105.106 65.7897C105.061 65.8563 104.982 65.8896 104.846 65.8896H99.9502V70.4778C99.984 70.6111 99.9614 70.7111 99.9163 70.7444Z" fill="#585857"/>
<path fill-rule="evenodd" clip-rule="evenodd" d="M115.834 66.3119C115.834 67.8117 115.473 68.9671 114.751 69.7781C114.029 70.589 112.924 71.0001 111.446 71.0001C109.945 71.0001 108.862 70.589 108.163 69.7781C107.475 68.9671 107.125 67.8228 107.125 66.3453C107.125 65.6232 107.227 64.9677 107.43 64.3789C107.633 63.8012 107.915 63.3013 108.287 62.9125C108.659 62.5125 109.111 62.2126 109.652 61.9904C110.182 61.7793 110.791 61.6682 111.468 61.6682C112.924 61.6682 114.007 62.0793 114.74 62.9014C115.462 63.7234 115.834 64.8566 115.834 66.3119ZM113.228 66.3564C113.228 65.9675 113.206 65.6231 113.138 65.301C113.081 64.9788 112.98 64.7122 112.845 64.49C112.709 64.2678 112.529 64.0901 112.303 63.9567C112.089 63.8234 111.818 63.7568 111.491 63.7568C110.882 63.7568 110.43 63.9901 110.137 64.4456C109.844 64.901 109.697 65.5232 109.697 66.3008C109.697 67.1451 109.832 67.8006 110.103 68.2338C110.374 68.6782 110.825 68.8893 111.446 68.8893C111.762 68.8893 112.044 68.8226 112.258 68.7004C112.484 68.5671 112.664 68.3894 112.811 68.1561C112.957 67.9228 113.059 67.6562 113.115 67.3451C113.194 67.0563 113.228 66.723 113.228 66.3564Z" fill="#585857"/>
<path fill-rule="evenodd" clip-rule="evenodd" d="M120.542 70.7555C120.497 70.7889 120.396 70.8111 120.226 70.8111H118.466C118.342 70.8111 118.252 70.7889 118.196 70.7555C118.139 70.7111 118.105 70.6333 118.105 70.5111V63.2789C118.105 62.8346 118.184 62.5013 118.342 62.268C118.5 62.0347 118.827 61.8792 119.335 61.8014C119.538 61.7792 119.753 61.757 119.978 61.7459C120.192 61.7236 120.418 61.7236 120.655 61.7236C121.411 61.7236 122.167 61.8236 122.911 62.0125C123.656 62.2013 124.31 62.5124 124.885 62.9346C124.976 63.0012 125.021 63.0679 125.021 63.1345C125.01 63.2012 124.998 63.2678 124.964 63.3345L124.073 64.7454C124.006 64.8565 123.938 64.912 123.881 64.9009C123.825 64.8898 123.735 64.8454 123.611 64.7676C123.284 64.5343 122.945 64.3343 122.573 64.1788C122.201 64.0233 121.794 63.9455 121.332 63.9344C121.095 63.9344 120.858 63.9455 120.644 63.9899V70.5445C120.61 70.6333 120.587 70.7222 120.542 70.7555Z" fill="#585857"/>
<path fill-rule="evenodd" clip-rule="evenodd" d="M130.152 68.7892C130.525 68.7892 130.886 68.7448 131.235 68.667C131.585 68.5781 131.89 68.4892 132.138 68.4004C132.284 68.3448 132.386 68.3226 132.442 68.3448C132.499 68.3559 132.544 68.4337 132.589 68.5559L133.074 69.8335C133.13 69.9446 133.153 70.0334 133.153 70.1001C133.153 70.1667 133.085 70.2334 132.95 70.3001C132.442 70.5667 131.901 70.7555 131.325 70.8555C130.75 70.9555 130.231 70.9999 129.757 70.9999C128.404 70.9999 127.366 70.6111 126.666 69.8446C125.967 69.078 125.617 67.9227 125.617 66.3785C125.617 65.6563 125.719 65.0009 125.922 64.4232C126.125 63.8455 126.407 63.3456 126.779 62.9346C127.151 62.5235 127.603 62.2124 128.133 62.0014C128.663 61.7903 129.261 61.6792 129.915 61.6792C130.4 61.6792 130.874 61.7236 131.348 61.8236C131.822 61.9236 132.251 62.068 132.645 62.2569C132.792 62.3235 132.882 62.3902 132.894 62.4457C132.916 62.5013 132.894 62.6013 132.837 62.7346L132.352 64.0455C132.296 64.1677 132.228 64.2344 132.16 64.2455C132.093 64.2566 131.98 64.2343 131.811 64.1899C131.517 64.101 131.224 64.0233 130.931 63.9677C130.649 63.9122 130.367 63.8789 130.107 63.8789C129.757 63.8789 129.475 63.9455 129.238 64.0788C129.002 64.2121 128.81 64.401 128.663 64.6232C128.516 64.8454 128.404 65.112 128.336 65.4119C128.268 65.7119 128.234 66.0341 128.234 66.3673C128.234 66.7228 128.268 67.045 128.325 67.3339C128.381 67.6338 128.483 67.8782 128.641 68.1004C128.787 68.3115 128.99 68.4781 129.238 68.6003C129.453 68.7225 129.769 68.7892 130.152 68.7892Z" fill="#585857"/>
<path fill-rule="evenodd" clip-rule="evenodd" d="M138.959 61.6682C140.301 61.6682 141.317 62.0015 141.982 62.6681C142.659 63.3346 142.986 64.2789 142.986 65.5121C142.986 66.1009 142.873 66.5008 142.636 66.723C142.411 66.9341 142.095 67.0452 141.689 67.0452H137.278C137.289 67.4118 137.357 67.7117 137.458 67.945C137.571 68.1783 137.718 68.3783 137.898 68.5227C138.079 68.6671 138.304 68.7671 138.553 68.8338C138.801 68.8893 139.06 68.9115 139.354 68.9115C139.692 68.9115 140.03 68.8782 140.369 68.7893C140.719 68.7116 141.034 68.6116 141.339 68.4783C141.474 68.4338 141.576 68.4227 141.621 68.4338C141.678 68.456 141.723 68.5005 141.768 68.6005L142.321 69.8225C142.366 69.9225 142.377 70.0002 142.343 70.0558C142.309 70.1113 142.253 70.1669 142.163 70.2224C141.734 70.4891 141.238 70.689 140.673 70.8112C140.109 70.9334 139.59 70.989 139.105 70.989C137.594 70.989 136.488 70.6224 135.766 69.8892C135.044 69.1559 134.672 67.9894 134.672 66.3897C134.672 65.6454 134.773 64.9788 134.976 64.39C135.18 63.8012 135.462 63.3124 135.834 62.9014C136.206 62.4903 136.657 62.1904 137.176 61.9793C137.718 61.7793 138.304 61.6682 138.959 61.6682ZM139.015 63.7123C138.541 63.7123 138.158 63.879 137.853 64.2012C137.56 64.5344 137.379 64.9455 137.334 65.4565H140.561C140.561 65.2121 140.538 64.9788 140.482 64.7566C140.437 64.5455 140.346 64.3567 140.234 64.2012C140.121 64.0456 139.963 63.9234 139.771 63.8345C139.579 63.7568 139.32 63.7123 139.015 63.7123Z" fill="#585857"/>
</g>
<defs>
<clipPath id="clip0">
<rect width="84" height="71" fill="white" transform="translate(59)"/>
</clipPath>
</defs>
</svg>
