<svg width="200" height="60" viewBox="0 0 200 60" fill="none" xmlns="http://www.w3.org/2000/svg">
<path d="M40.2455 0V59.0892H24.4497L15.066 32.2325V59.0892H0V0H15.066L25.1795 26.6123V0H40.2455Z" fill="#009FD1"/>
<path d="M86.1187 27.6564V39.5187C86.1187 43.8726 85.858 47.0714 85.3367 49.0929C84.8154 51.1366 83.7206 53.0248 82.0524 54.7797C80.3581 56.5346 78.1947 57.8452 75.562 58.6893C72.9294 59.5335 69.8797 59.9555 66.4651 59.9555C62.6334 59.9555 59.4013 59.6001 56.7426 58.8893C54.0839 58.1784 52.0247 57.0899 50.565 55.646C49.1053 54.2021 48.0366 52.4472 47.411 50.3813C46.7854 48.3154 46.4727 45.2499 46.4727 41.1403V28.7227C46.4727 24.2133 47.0461 20.7034 48.193 18.1711C49.3399 15.6387 51.3991 13.6172 54.3706 12.0844C57.3421 10.5517 61.1477 9.79639 65.7613 9.79639C69.6451 9.79639 72.9815 10.2851 75.7706 11.2625C78.5596 12.2399 80.697 13.5283 82.2088 15.1055C83.7206 16.6827 84.7632 18.3266 85.3106 19.9926C85.8319 21.6809 86.1187 24.2355 86.1187 27.6564ZM68.811 24.0133C68.811 21.5254 68.6546 19.9704 68.3418 19.3262C68.029 18.682 67.3513 18.3488 66.3348 18.3488C65.3182 18.3488 64.6144 18.682 64.2756 19.3262C63.9367 19.9704 63.7542 21.5254 63.7542 24.0133V45.8719C63.7542 48.1599 63.9367 49.6483 64.2756 50.3369C64.6144 51.0255 65.2921 51.3809 66.2826 51.3809C67.2992 51.3809 67.9769 51.07 68.3158 50.4257C68.6546 49.8038 68.811 48.4265 68.811 46.3384V24.0133V24.0133Z" fill="#009FD1"/>
<path d="M109.108 0V13.9948C110.542 12.5731 112.132 11.5291 113.878 10.8404C115.625 10.1518 117.528 9.79636 119.587 9.79636C121.959 9.79636 124.018 10.1074 125.764 10.7516C127.511 11.3736 128.84 12.2621 129.753 13.4172C130.665 14.5724 131.212 15.6831 131.395 16.7716C131.577 17.86 131.681 20.1925 131.681 23.769V45.5831C131.681 49.1373 131.395 51.7808 130.847 53.5135C130.3 55.2462 128.997 56.7567 126.937 58.0451C124.878 59.3113 122.428 59.9555 119.613 59.9555C117.58 59.9555 115.703 59.5779 113.931 58.8226C112.184 58.0673 110.568 56.9344 109.108 55.4239L107.988 59.0892H91.8008V0H109.108ZM114.374 24.4132C114.374 21.903 114.191 20.2814 113.826 19.5039C113.461 18.7486 112.732 18.3487 111.637 18.3487C110.568 18.3487 109.89 18.682 109.578 19.3484C109.265 20.0148 109.108 21.7031 109.108 24.4132V45.2943C109.108 47.8933 109.291 49.5594 109.63 50.2924C109.995 51.0255 110.698 51.3809 111.741 51.3809C112.836 51.3809 113.54 51.0033 113.852 50.248C114.191 49.4927 114.348 47.6712 114.348 44.8056V24.4132H114.374Z" fill="#009FD1"/>
<path d="M176.546 35.7203H154.155V46.2053C154.155 48.4045 154.338 49.804 154.703 50.4482C155.068 51.0702 155.797 51.4034 156.84 51.4034C158.143 51.4034 159.03 50.9813 159.473 50.1372C159.916 49.2931 160.15 47.6715 160.15 45.2723V38.8747H176.546V42.4512C176.546 45.4501 176.311 47.7381 175.894 49.3597C175.451 50.9591 174.408 52.6696 172.792 54.5134C171.176 56.3349 169.117 57.7122 166.615 58.6229C164.112 59.5337 160.985 60.0002 157.205 60.0002C153.556 60.0002 150.324 59.5559 147.535 58.6452C144.746 57.7566 142.556 56.5126 140.992 54.9354C139.428 53.3582 138.359 51.6478 137.76 49.7596C137.16 47.8714 136.848 45.1391 136.848 41.5404V27.4123C136.848 23.1917 137.525 19.8373 138.855 17.3938C140.21 14.9503 142.4 13.0843 145.449 11.7737C148.499 10.4631 152.018 9.81885 155.98 9.81885C160.828 9.81885 164.842 10.5963 167.996 12.1735C171.15 13.7507 173.366 15.8166 174.643 18.4157C175.92 21.0147 176.546 24.6578 176.546 29.3449V35.7203V35.7203ZM159.212 27.8566V24.3246C159.212 21.8144 159.056 20.1928 158.743 19.4819C158.43 18.7489 157.778 18.3934 156.814 18.3934C155.615 18.3934 154.859 18.7044 154.598 19.3264C154.312 19.9484 154.181 21.6145 154.181 24.3468V27.8788H159.212V27.8566Z" fill="#009FD1"/>
<path d="M199.998 0H182.195V59.0892H199.998V0Z" fill="#009FD1"/>
</svg>
