<svg width="405" height="122" viewBox="0 0 405 122" fill="none" xmlns="http://www.w3.org/2000/svg">
<path d="M43.15 41.42H57.58V31.81H66.58V58.81H57.58V48.5H43.15V58.84H34.15V31.84H43.15V41.42Z" fill="white"/>
<path d="M78.34 37.32H69.93V31.81H78.34V37.32ZM78.34 38.38H69.93V58.84H78.34V38.38Z" fill="white"/>
<path d="M113.11 31.81V39.15H101.72V58.84H92.72V39.15H81.18V31.81H113.11ZM81.18 39.11V31.81H113.11L81.18 39.11Z" fill="white"/>
<path d="M43.15 41.42H57.58V31.81H66.58V58.81H57.58V48.5H43.15V58.84H34.15V31.84H43.15V41.42Z" fill="url(#paint0_linear_2_113)"/>
<path d="M78.34 37.32H69.93V31.81H78.34V37.32ZM78.34 38.38H69.93V58.84H78.34V38.38Z" fill="url(#paint1_linear_2_113)"/>
<path d="M113.11 31.81V39.15H101.72V58.84H92.72V39.15H81.18V31.81H113.11ZM81.18 39.11V31.81H113.11L81.18 39.11Z" fill="url(#paint2_linear_2_113)"/>
<path d="M49.65 82.06L48.94 85.22H33.26C33.3746 84.2341 33.6236 83.2684 34 82.35C34.303 81.583 34.6958 80.8546 35.17 80.18C35.6731 79.5124 36.2652 78.9168 36.93 78.41C37.5913 77.8777 38.2825 77.3836 39 76.93C39.64 76.53 40.48 76.04 41.51 75.43L42.51 74.89C43.84 74.1742 45.0903 73.3194 46.24 72.34C46.7063 71.9157 47.0807 71.4006 47.3404 70.8262C47.6001 70.2518 47.7395 69.6303 47.75 69C47.7659 68.5427 47.685 68.0871 47.5127 67.6632C47.3404 67.2393 47.0805 66.8565 46.75 66.54C46.0259 65.897 45.0769 65.5663 44.11 65.62C43.4965 65.5911 42.8843 65.7 42.3184 65.9388C41.7525 66.1776 41.2473 66.5403 40.84 67C40.0185 68.0145 39.5296 69.2576 39.44 70.56H36C36.1162 68.3769 37.0061 66.3066 38.51 64.72C39.2914 63.975 40.2172 63.3981 41.2302 63.0249C42.2433 62.6517 43.3221 62.49 44.4 62.55C46.2745 62.4538 48.1188 63.0519 49.58 64.23C50.2187 64.7937 50.7235 65.493 51.0574 66.2767C51.3913 67.0604 51.5459 67.9089 51.51 68.76C51.5232 70.2192 51.0714 71.6448 50.22 72.83C49.1341 74.2497 47.7738 75.4366 46.22 76.32C45.8067 76.58 45.2267 76.9133 44.48 77.32L42.89 78.25C42.57 78.43 42.16 78.69 41.63 79.02C41.1 79.35 40.72 79.62 40.47 79.81C40.22 80 39.93 80.24 39.6 80.52C39.3076 80.7664 39.0336 81.0338 38.78 81.32C38.5608 81.5881 38.3571 81.8686 38.17 82.16C38.77 82.12 39.8 82.1 41.26 82.1L49.65 82.06Z" fill="#1D1D1B"/>
<path d="M69.09 70.51C69.0844 71.5883 68.9975 72.6647 68.83 73.73C68.6512 74.873 68.394 76.0023 68.06 77.11C67.7194 78.2323 67.2602 79.3151 66.69 80.34C66.1482 81.3208 65.501 82.2396 64.76 83.08C64.0344 83.8961 63.1451 84.5503 62.15 85C61.1122 85.4639 59.9868 85.6992 58.85 85.69C57.8735 85.7627 56.8944 85.5883 56.003 85.1828C55.1117 84.7774 54.3369 84.1539 53.75 83.37C52.5847 81.633 52.0033 79.5699 52.09 77.48C52.094 76.1918 52.2145 74.9065 52.45 73.64C52.6914 72.2676 53.0838 70.9262 53.62 69.64C54.1412 68.3773 54.8127 67.182 55.62 66.08C56.392 65.0414 57.3731 64.1761 58.5 63.54C59.6582 62.8819 60.9679 62.5373 62.3 62.54C63.2684 62.464 64.2409 62.6203 65.1367 62.996C66.0325 63.3717 66.8256 63.9559 67.45 64.7C68.6389 66.395 69.2172 68.4435 69.09 70.51ZM62.09 65.51C61.5183 65.5226 60.9556 65.6556 60.4387 65.9003C59.9218 66.145 59.4622 66.4958 59.09 66.93C58.166 67.9333 57.4821 69.1336 57.09 70.44C56.6613 71.7477 56.3271 73.0844 56.09 74.44C55.8639 75.6135 55.7434 76.805 55.73 78C55.73 81.1133 56.8767 82.6667 59.17 82.66C59.7443 82.656 60.3107 82.5258 60.8291 82.2787C61.3475 82.0316 61.8052 81.6736 62.17 81.23C63.0877 80.2068 63.7703 78.9951 64.17 77.68C64.5973 76.3448 64.9315 74.9815 65.17 73.6C65.3823 72.472 65.496 71.3277 65.51 70.18C65.48 67.09 64.37 65.55 62.13 65.55L62.09 65.51Z" fill="#1D1D1B"/>
<path d="M84.79 82.06L84.09 85.22H68.41C68.5229 84.2359 68.765 83.2709 69.13 82.35C69.4406 81.5847 69.8364 80.8567 70.31 80.18C70.812 79.5148 71.4005 78.9196 72.06 78.41C72.7246 77.8775 73.4191 77.3834 74.14 76.93C74.78 76.53 75.62 76.04 76.65 75.43L77.65 74.89C78.98 74.1742 80.2303 73.3194 81.38 72.34C81.8467 71.9161 82.2215 71.401 82.4812 70.8265C82.741 70.252 82.8801 69.6304 82.89 69C82.9065 68.5426 82.826 68.0869 82.6536 67.6628C82.4812 67.2388 82.221 66.8561 81.89 66.54C81.1647 65.8989 80.2166 65.5685 79.25 65.62C78.6398 65.5941 78.0315 65.7045 77.4693 65.9432C76.9071 66.1819 76.4051 66.5429 76 67C75.1785 68.0145 74.6896 69.2576 74.6 70.56H71.11C71.2356 68.3791 72.1241 66.3119 73.62 64.72C74.4028 63.977 75.3288 63.4013 76.3415 63.0282C77.3542 62.6551 78.4323 62.4924 79.51 62.55C81.3878 62.4522 83.2357 63.0504 84.7 64.23C85.3371 64.7951 85.8407 65.4945 86.1744 66.278C86.5082 67.0614 86.6638 67.9091 86.63 68.76C86.6432 70.2192 86.1914 71.6448 85.34 72.83C84.2541 74.2497 82.8938 75.4366 81.34 76.32C80.9267 76.58 80.3467 76.9133 79.6 77.32L78 78.25C77.69 78.43 77.27 78.69 76.75 79.02C76.23 79.35 75.84 79.62 75.59 79.81C75.34 80 75.05 80.24 74.72 80.52C74.4253 80.7638 74.151 81.0314 73.9 81.32C73.6808 81.5881 73.4771 81.8686 73.29 82.16C73.89 82.12 74.92 82.1 76.38 82.1L84.79 82.06Z" fill="#1D1D1B"/>
<path d="M102.37 82.06L101.66 85.22H86C86.1114 84.2345 86.357 83.2689 86.73 82.35C87.033 81.583 87.4257 80.8546 87.9 80.18C88.4058 79.5148 88.9977 78.9196 89.66 78.41C90.3213 77.8777 91.0124 77.3836 91.73 76.93C92.38 76.53 93.21 76.04 94.24 75.43L95.24 74.89C96.5699 74.1742 97.8203 73.3194 98.97 72.34C99.4344 71.9149 99.807 71.3993 100.065 70.8249C100.323 70.2506 100.461 69.6296 100.47 69C100.488 68.5424 100.409 68.086 100.236 67.6617C100.064 67.2374 99.8025 66.855 99.47 66.54C98.7458 65.897 97.7969 65.5664 96.83 65.62C96.2167 65.5932 95.6052 65.7031 95.0396 65.9418C94.4741 66.1805 93.9687 66.5419 93.56 67C92.7385 68.0145 92.2496 69.2576 92.16 70.56H88.69C88.8062 68.3769 89.696 66.3066 91.2 64.72C91.9821 63.976 92.908 63.3997 93.9208 63.0266C94.9337 62.6534 96.0122 62.4912 97.09 62.55C98.9648 62.4519 100.81 63.0502 102.27 64.23C102.909 64.7937 103.413 65.493 103.747 66.2767C104.081 67.0604 104.236 67.9089 104.2 68.76C104.213 70.2192 103.761 71.6448 102.91 72.83C101.827 74.252 100.466 75.4393 98.91 76.32C98.5033 76.58 97.9233 76.9133 97.17 77.32L95.58 78.25L94.27 79C93.75 79.34 93.36 79.6 93.11 79.79L92.24 80.5C91.9476 80.7464 91.6736 81.0138 91.42 81.3C91.21 81.56 91.01 81.84 90.81 82.14C91.41 82.1 92.44 82.08 93.9 82.08L102.37 82.06Z" fill="#1D1D1B"/>
<path d="M123.63 44H121.25V32.38H123.63V36.72H128.86V32.38H131.22V44H128.86V38.88H123.63V44Z" fill="#1D1D1B"/>
<path d="M138.63 44.19C137.977 44.2147 137.326 44.1088 136.715 43.8787C136.104 43.6487 135.544 43.2989 135.07 42.85C134.593 42.3542 134.223 41.7653 133.984 41.12C133.745 40.4748 133.641 39.7871 133.68 39.1V32.38H136.05V39.18C136.025 39.5526 136.074 39.9264 136.194 40.28C136.314 40.6335 136.503 40.9598 136.75 41.24C137.269 41.7032 137.94 41.9592 138.635 41.9592C139.33 41.9592 140.001 41.7032 140.52 41.24C140.769 40.9606 140.959 40.6347 141.081 40.2811C141.203 39.9275 141.254 39.5533 141.23 39.18V32.38H143.61V39.1C143.663 39.7741 143.57 40.4517 143.339 41.0871C143.107 41.7225 142.743 42.3008 142.269 42.7832C141.795 43.2656 141.223 43.6408 140.592 43.8834C139.961 44.1261 139.285 44.2307 138.61 44.19H138.63Z" fill="#1D1D1B"/>
<path d="M148.44 44H146.06V32.38H148.43L151.79 37.18L155.14 32.38H157.49V44H155.14V36L152.48 39.72H151.16L148.44 36V44Z" fill="#1D1D1B"/>
<path d="M162.47 44H160.1V32.38H162.47V44Z" fill="#1D1D1B"/>
<path d="M170.85 44.19C169.193 44.2442 167.583 43.6402 166.37 42.51C165.785 41.9517 165.324 41.277 165.015 40.5296C164.707 39.7821 164.559 38.9783 164.58 38.17C164.553 37.3642 164.696 36.5617 165.001 35.8154C165.306 35.0691 165.766 34.3959 166.35 33.84C166.952 33.2762 167.659 32.8366 168.432 32.5466C169.204 32.2566 170.026 32.1218 170.85 32.15C171.915 32.1328 172.967 32.3839 173.91 32.88V35.28C173.023 34.6863 171.978 34.3728 170.91 34.38C170.4 34.3669 169.892 34.4556 169.416 34.641C168.941 34.8265 168.507 35.1049 168.14 35.46C167.429 36.1869 167.031 37.1632 167.031 38.18C167.031 39.1968 167.429 40.1731 168.14 40.9C168.518 41.2665 168.966 41.5528 169.458 41.7418C169.949 41.9309 170.474 42.0187 171 42C172.14 42.0379 173.258 41.6851 174.17 41V43.4C173.157 43.9643 172.008 44.2376 170.85 44.19Z" fill="#1D1D1B"/>
<path d="M123.7 63.82H121.33V52.23H123.7V63.82Z" fill="#1D1D1B"/>
<path d="M128.64 63.82H126.31V52.23H128.31L134.15 59.65V52.23H136.47V63.82H134.47L128.58 56.37L128.64 63.82Z" fill="#1D1D1B"/>
<path d="M141.41 63.82H139.07V52.23H141.07L147 59.65V52.23H149.32V63.82H147.32L141.43 56.37L141.41 63.82Z" fill="#1D1D1B"/>
<path d="M151.31 58C151.29 57.2157 151.43 56.4356 151.72 55.7068C152.011 54.978 152.446 54.3157 153 53.76C154.143 52.6326 155.684 52.0006 157.29 52.0006C158.896 52.0006 160.437 52.6326 161.58 53.76C162.683 54.9059 163.299 56.4345 163.299 58.025C163.299 59.6155 162.683 61.1441 161.58 62.29C160.437 63.4174 158.896 64.0494 157.29 64.0494C155.684 64.0494 154.143 63.4174 153 62.29C152.444 61.7253 152.008 61.0544 151.718 60.3172C151.427 59.5801 151.289 58.792 151.31 58V58ZM154.75 60.72C155.079 61.0696 155.478 61.3457 155.92 61.5301C156.363 61.7145 156.84 61.8031 157.32 61.79C157.795 61.802 158.267 61.7128 158.705 61.5283C159.143 61.3438 159.537 61.0683 159.86 60.72C160.524 59.9716 160.891 59.0057 160.891 58.005C160.891 57.0043 160.524 56.0384 159.86 55.29C159.536 54.9432 159.142 54.6687 158.704 54.4843C158.266 54.3 157.795 54.2099 157.32 54.22C156.841 54.2088 156.364 54.2982 155.922 54.4825C155.479 54.6668 155.08 54.9419 154.75 55.29C154.098 56.0441 153.739 57.0079 153.739 58.005C153.739 59.0021 154.098 59.9659 154.75 60.72V60.72Z" fill="#1D1D1B"/>
<path d="M170.75 63.88H168.5L163.64 52.23H166.27L169.65 60.57L173 52.23H175.58L170.75 63.88Z" fill="#1D1D1B"/>
<path d="M177.36 63.82H174.87L179.87 52.17H182.15L187.15 63.82H184.61L183.47 61.14H178.57L177.36 63.82ZM181 55.15L179.3 59.15H182.69L181 55.15Z" fill="#1D1D1B"/>
<path d="M186.21 54.37V52.23H195.92V54.37H192.25V63.82H189.87V54.37H186.21Z" fill="#1D1D1B"/>
<path d="M199.82 63.82H197.45V52.23H199.82V63.82Z" fill="#1D1D1B"/>
<path d="M208.36 63.88H206.11L201.25 52.23H203.88L207.26 60.57L210.65 52.23H213.23L208.36 63.88Z" fill="#1D1D1B"/>
<path d="M223.3 63.82H214.62V52.23H223.12V54.37H217V56.6H221.93V58.7H217V61.7H223.3V63.82Z" fill="#1D1D1B"/>
<path d="M120.47 74.22V72.09H130.18V74.22H126.51V83.67H124.13V74.22H120.47Z" fill="#1D1D1B"/>
<path d="M140.36 83.67H131.67V72.09H140.17V74.22H134.05V76.46H139V78.56H134.07V81.56H140.38L140.36 83.67Z" fill="#1D1D1B"/>
<path d="M147.83 83.9C146.169 83.9531 144.554 83.3453 143.34 82.21C142.202 81.054 141.565 79.497 141.565 77.875C141.565 76.253 142.202 74.696 143.34 73.54C144.56 72.4086 146.177 71.8049 147.84 71.86C148.903 71.8464 149.954 72.0936 150.9 72.58V75C150.009 74.4143 148.966 74.1047 147.9 74.11C147.391 74.0976 146.885 74.1868 146.411 74.3722C145.937 74.5576 145.505 74.8357 145.14 75.19C144.429 75.9169 144.031 76.8932 144.031 77.91C144.031 78.9268 144.429 79.9031 145.14 80.63C145.517 80.9835 145.96 81.2591 146.444 81.4409C146.928 81.6228 147.443 81.7075 147.96 81.69C149.103 81.7302 150.226 81.3773 151.14 80.69V83.09C150.132 83.6594 148.987 83.9397 147.83 83.9V83.9Z" fill="#1D1D1B"/>
<path d="M155.58 83.67H153.2V72.09H155.58V76.42H160.81V72.09H163.18V83.67H160.81V78.59H155.58V83.67Z" fill="#1D1D1B"/>
<path d="M168.09 83.67H165.75V72.09H167.75L173.59 79.5V72.09H175.9V83.67H173.9L168.01 76.22L168.09 83.67Z" fill="#1D1D1B"/>
<path d="M178 77.88C177.98 77.0904 178.121 76.3049 178.413 75.5711C178.705 74.8372 179.143 74.1701 179.7 73.61C180.849 72.4892 182.39 71.8618 183.995 71.8618C185.6 71.8618 187.141 72.4892 188.29 73.61C189.394 74.7576 190.01 76.2879 190.01 77.88C190.01 79.4721 189.394 81.0024 188.29 82.15C187.141 83.2708 185.6 83.8982 183.995 83.8982C182.39 83.8982 180.849 83.2708 179.7 82.15C179.147 81.5872 178.711 80.9196 178.42 80.1864C178.128 79.4532 177.985 78.669 178 77.88ZM181.44 80.59C181.772 80.932 182.169 81.2039 182.608 81.3896C183.047 81.5753 183.518 81.671 183.995 81.671C184.472 81.671 184.943 81.5753 185.382 81.3896C185.821 81.2039 186.218 80.932 186.55 80.59C187.214 79.8432 187.58 78.879 187.58 77.88C187.58 76.881 187.214 75.9168 186.55 75.17C186.218 74.828 185.821 74.5561 185.382 74.3704C184.943 74.1847 184.472 74.089 183.995 74.089C183.518 74.089 183.047 74.1847 182.608 74.3704C182.169 74.5561 181.772 74.828 181.44 75.17C180.788 75.9225 180.43 76.8846 180.43 77.88C180.43 78.8754 180.788 79.8375 181.44 80.59Z" fill="#1D1D1B"/>
<path d="M200.27 83.67H192V72.09H194.38V81.54H200.26L200.27 83.67Z" fill="#1D1D1B"/>
<path d="M201 77.88C200.98 77.0904 201.121 76.3049 201.413 75.5711C201.705 74.8372 202.143 74.1701 202.7 73.61C203.849 72.4892 205.39 71.8618 206.995 71.8618C208.6 71.8618 210.141 72.4892 211.29 73.61C212.394 74.7576 213.01 76.2879 213.01 77.88C213.01 79.4721 212.394 81.0024 211.29 82.15C210.141 83.2708 208.6 83.8982 206.995 83.8982C205.39 83.8982 203.849 83.2708 202.7 82.15C202.147 81.5872 201.711 80.9196 201.42 80.1864C201.128 79.4532 200.985 78.669 201 77.88V77.88ZM204.44 80.59C204.767 80.9396 205.164 81.2165 205.605 81.4026C206.046 81.5886 206.521 81.6798 207 81.67C207.476 81.6801 207.948 81.589 208.386 81.4028C208.824 81.2167 209.217 80.9396 209.54 80.59C210.204 79.8432 210.57 78.879 210.57 77.88C210.57 76.881 210.204 75.9168 209.54 75.17C209.217 74.8204 208.824 74.5433 208.386 74.3572C207.948 74.171 207.476 74.0799 207 74.09C206.52 74.0788 206.042 74.1693 205.6 74.3554C205.157 74.5415 204.758 74.8191 204.43 75.17C203.778 75.9225 203.42 76.8846 203.42 77.88C203.42 78.8754 203.778 79.8375 204.43 80.59H204.44Z" fill="#1D1D1B"/>
<path d="M220.68 83.9C219.871 83.9254 219.065 83.7889 218.31 83.4987C217.554 83.2085 216.864 82.7704 216.28 82.21C215.145 81.0527 214.509 79.4962 214.509 77.875C214.509 76.2538 215.145 74.6973 216.28 73.54C216.879 72.9776 217.583 72.5396 218.352 72.2512C219.121 71.9628 219.939 71.8299 220.76 71.86C221.977 71.8288 223.18 72.1296 224.24 72.73V75.08C223.253 74.4405 222.106 74.0938 220.93 74.08C220.404 74.0584 219.879 74.1409 219.384 74.3228C218.89 74.5047 218.437 74.7824 218.05 75.14C217.677 75.4974 217.386 75.9304 217.194 76.4099C217.003 76.8894 216.916 77.4043 216.94 77.92C216.911 78.4274 216.991 78.935 217.174 79.4091C217.357 79.8833 217.638 80.3131 218 80.67C218.355 81.0051 218.773 81.2662 219.229 81.4379C219.686 81.6096 220.172 81.6885 220.66 81.67C221.506 81.7304 222.342 81.4577 222.99 80.91V77H225.38V82.11C224.815 82.6853 224.133 83.1321 223.38 83.42C222.519 83.752 221.602 83.915 220.68 83.9V83.9Z" fill="#1D1D1B"/>
<path d="M230.09 83.67H227.72V72.09H230.09V83.67Z" fill="#1D1D1B"/>
<path d="M241.39 83.67H232.7V72.09H241.2V74.22H235.08V76.46H240V78.56H235.07V81.56H241.38L241.39 83.67Z" fill="#1D1D1B"/>
<path d="M247.24 83.9C245.68 83.9539 244.142 83.5205 242.84 82.66V80.18C243.415 80.6473 244.064 81.0157 244.76 81.27C245.52 81.561 246.326 81.7134 247.14 81.72C247.699 81.7419 248.254 81.6178 248.75 81.36C248.94 81.2716 249.101 81.1302 249.212 80.9528C249.324 80.7754 249.382 80.5696 249.38 80.36C249.397 80.1515 249.348 79.9429 249.241 79.7635C249.133 79.5841 248.972 79.443 248.78 79.36C248.571 79.2374 248.35 79.1368 248.12 79.06L247.72 78.93L246.8 78.65L245.94 78.36C245.675 78.2825 245.414 78.189 245.16 78.08C244.902 77.9846 244.652 77.8709 244.41 77.74C243.986 77.4793 243.616 77.1398 243.32 76.74C243.064 76.238 242.927 75.6836 242.92 75.12C242.903 74.6508 243.002 74.1845 243.207 73.7625C243.413 73.3404 243.72 72.9755 244.1 72.7C245.035 72.0581 246.157 71.7451 247.29 71.81C248.618 71.8135 249.923 72.1578 251.08 72.81V75.12C249.962 74.3977 248.661 74.0092 247.33 74C246.01 74 245.33 74.38 245.33 75.14C245.34 75.3189 245.404 75.4907 245.513 75.6332C245.621 75.7757 245.77 75.8826 245.94 75.94C246.239 76.0889 246.555 76.203 246.88 76.28L248.14 76.65C249.034 76.9175 249.881 77.3223 250.65 77.85C251.033 78.1214 251.341 78.4861 251.544 78.9095C251.747 79.333 251.838 79.8013 251.81 80.27C251.828 80.7818 251.719 81.2901 251.492 81.7491C251.265 82.2082 250.928 82.6037 250.51 82.9C249.556 83.5762 248.409 83.9268 247.24 83.9V83.9Z" fill="#1D1D1B"/>
<defs>
<linearGradient id="paint0_linear_2_113" x1="34.13" y1="45.32" x2="113.11" y2="45.32" gradientUnits="userSpaceOnUse">
<stop stop-color="#784895"/>
<stop offset="0.18" stop-color="#2A4898"/>
<stop offset="0.32" stop-color="#0095D3"/>
<stop offset="0.46" stop-color="#19A540"/>
<stop offset="0.62" stop-color="#D4D920"/>
<stop offset="0.79" stop-color="#F2921A"/>
<stop offset="1" stop-color="#941914"/>
</linearGradient>
<linearGradient id="paint1_linear_2_113" x1="34.13" y1="45.32" x2="113.11" y2="45.32" gradientUnits="userSpaceOnUse">
<stop stop-color="#784895"/>
<stop offset="0.18" stop-color="#2A4898"/>
<stop offset="0.32" stop-color="#0095D3"/>
<stop offset="0.46" stop-color="#19A540"/>
<stop offset="0.62" stop-color="#D4D920"/>
<stop offset="0.79" stop-color="#F2921A"/>
<stop offset="1" stop-color="#941914"/>
</linearGradient>
<linearGradient id="paint2_linear_2_113" x1="34.13" y1="45.32" x2="113.11" y2="45.32" gradientUnits="userSpaceOnUse">
<stop stop-color="#784895"/>
<stop offset="0.18" stop-color="#2A4898"/>
<stop offset="0.32" stop-color="#0095D3"/>
<stop offset="0.46" stop-color="#19A540"/>
<stop offset="0.62" stop-color="#D4D920"/>
<stop offset="0.79" stop-color="#F2921A"/>
<stop offset="1" stop-color="#941914"/>
</linearGradient>
</defs>
</svg>
