<svg width="405" height="122" viewBox="0 0 405 122" fill="none" xmlns="http://www.w3.org/2000/svg">
<path d="M74.6742 32.7665V74.741H66.839V56.752H45.0208V74.741H37.1855V32.7665H45.0208V50.096H66.839V32.7665H74.6742Z" fill="black"/>
<path d="M87.3286 39.7533C86.9316 39.3787 86.6154 38.9276 86.3993 38.4275C86.1832 37.9274 86.0718 37.3887 86.0718 36.8444C86.0718 36.3 86.1832 35.7614 86.3993 35.2612C86.6154 34.7611 86.9316 34.31 87.3286 33.9355C88.1724 33.1539 89.2914 32.734 90.4438 32.7665C91.5866 32.7323 92.6998 33.1307 93.5588 33.8812C93.9629 34.2268 94.2852 34.6571 94.5025 35.1412C94.7198 35.6252 94.8267 36.1512 94.8157 36.6812C94.8288 37.2411 94.7264 37.7977 94.515 38.3166C94.3035 38.8356 93.9874 39.306 93.5862 39.6988C93.1739 40.1051 92.6825 40.4232 92.1421 40.6336C91.6017 40.844 91.0238 40.9422 90.4439 40.9222C89.2914 40.9552 88.1722 40.5353 87.3286 39.7533ZM87.0008 45.7068H93.8321V74.741H87.0008V45.7068Z" fill="black"/>
<path d="M116.025 39.3624H102.042V32.7665H137.843V39.3624H123.86V74.741H116.025V39.3624Z" fill="black"/>
<path d="M74.6742 32.7665V74.741H66.839V56.752H45.0208V74.741H37.1855V32.7665H45.0208V50.096H66.839V32.7665H74.6742Z" fill="url(#paint0_linear)"/>
<path d="M87.3286 39.7533C86.9316 39.3787 86.6154 38.9276 86.3993 38.4275C86.1832 37.9274 86.0718 37.3887 86.0718 36.8444C86.0718 36.3 86.1832 35.7614 86.3993 35.2612C86.6154 34.7611 86.9316 34.31 87.3286 33.9355C88.1724 33.1539 89.2914 32.734 90.4438 32.7665C91.5866 32.7323 92.6998 33.1307 93.5588 33.8812C93.9629 34.2268 94.2852 34.6571 94.5025 35.1412C94.7198 35.6252 94.8267 36.1512 94.8157 36.6812C94.8288 37.2411 94.7264 37.7977 94.515 38.3166C94.3035 38.8356 93.9874 39.306 93.5862 39.6988C93.1739 40.1051 92.6825 40.4232 92.1421 40.6336C91.6017 40.844 91.0238 40.9422 90.4439 40.9222C89.2914 40.9552 88.1722 40.5353 87.3286 39.7533ZM87.0008 45.7068H93.8321V74.741H87.0008V45.7068Z" fill="url(#paint1_linear)"/>
<path d="M116.025 39.3624H102.042V32.7665H137.843V39.3624H123.86V74.741H116.025V39.3624Z" fill="url(#paint2_linear)"/>
<path d="M49.7406 92.8022C49.3483 94.0291 49.1392 95.3067 49.1201 96.5941H36.4455L36.4278 96.2238C36.4054 95.1367 36.766 94.076 37.447 93.2257C38.2456 92.2796 39.2095 91.4849 40.2921 90.8798C40.8313 90.5774 41.3877 90.3066 41.9586 90.0687C42.7389 89.7455 43.4968 89.3714 44.2275 88.9488C44.7594 88.6256 45.0253 88.3052 45.0252 87.9877C45.0299 87.8002 44.9869 87.6145 44.9001 87.448C44.8133 87.2815 44.6856 87.1395 44.5289 87.0353C44.1979 86.8003 43.6839 86.6827 42.9867 86.6826C42.2183 86.6826 41.6362 86.8765 41.2406 87.2644C41.0443 87.4573 40.8902 87.6885 40.788 87.9434C40.6858 88.1984 40.6378 88.4716 40.6468 88.746C40.6474 88.9412 40.6652 89.1359 40.6999 89.328C39.2109 89.1401 37.7632 89.0107 36.3568 88.9398C36.3454 87.9798 36.6198 87.0379 37.1457 86.2328C37.7323 85.3776 38.5582 84.7122 39.5211 84.3191C40.7542 83.8156 42.0797 83.5753 43.4121 83.6137C44.6111 83.5785 45.8057 83.7731 46.9309 84.1868C47.7397 84.4759 48.4559 84.9753 49.005 85.6332C49.4206 86.1397 49.6545 86.7696 49.6697 87.4233C49.6876 88.0606 49.5248 88.6901 49.1999 89.2397C48.8527 89.7799 48.3934 90.2399 47.8527 90.5889C47.1032 91.0733 46.318 91.5007 45.5038 91.8675C45.2808 91.9668 45.0495 92.0465 44.8125 92.1057C44.4934 92.1938 44.2925 92.2497 44.2098 92.2733C43.3705 92.52 42.7028 92.7258 42.2067 92.8906C41.7208 93.0506 41.2518 93.2573 40.8063 93.5079C44.6469 93.2961 47.625 93.0609 49.7406 92.8022Z" fill="black"/>
<path d="M53.041 95.0244C51.8357 93.8606 51.233 92.2439 51.2329 90.1744C51.2329 88.117 51.8386 86.5092 53.0499 85.3509C54.2611 84.193 56.1314 83.614 58.6605 83.6137C61.1893 83.6137 63.0565 84.1928 64.2622 85.3509C65.4676 86.5091 66.0703 88.1169 66.0703 90.1744C66.0703 92.244 65.4676 93.8606 64.2622 95.0244C63.0568 96.1885 61.1896 96.7706 58.6605 96.7706C56.1194 96.7706 54.2463 96.1885 53.041 95.0244ZM61.0536 92.6878C61.5396 91.942 61.7982 91.0721 61.7982 90.1833C61.7982 89.2945 61.5396 88.4247 61.0536 87.6789C60.5572 87.0147 59.7655 86.6826 58.6783 86.6826C57.5553 86.6826 56.7428 87.0147 56.2408 87.6789C55.7493 88.421 55.4874 89.2902 55.4874 90.1789C55.4874 91.0676 55.7493 91.9367 56.2408 92.6788C56.743 93.349 57.5555 93.6841 58.6783 93.6841C59.7654 93.6841 60.5572 93.352 61.0536 92.6878Z" fill="black"/>
<path d="M80.927 92.8022C80.721 93.4354 80.5669 94.0842 80.4665 94.7422C80.3657 95.3545 80.3123 95.9736 80.3068 96.5941H67.632L67.6143 96.2238C67.5919 95.1367 67.9525 94.076 68.6336 93.2257C69.4322 92.2796 70.396 91.4849 71.4787 90.8798C72.0178 90.5774 72.5743 90.3066 73.1451 90.0687C73.9254 89.7455 74.6834 89.3714 75.414 88.9488C75.9459 88.6256 76.2118 88.3052 76.2118 87.9877C76.2165 87.8002 76.1734 87.6145 76.0866 87.448C75.9998 87.2815 75.8722 87.1395 75.7154 87.0353C75.3845 86.8003 74.8704 86.6827 74.1732 86.6826C73.4048 86.6826 72.8228 86.8765 72.4271 87.2644C72.2308 87.4573 72.0767 87.6885 71.9745 87.9434C71.8724 88.1984 71.8243 88.4716 71.8333 88.746C71.8339 88.9412 71.8517 89.1359 71.8864 89.328C70.3974 89.1401 68.9497 89.0107 67.5433 88.9398C67.5319 87.9798 67.8064 87.0379 68.3322 86.2328C68.9189 85.3776 69.7448 84.7122 70.7076 84.3191C71.9407 83.8156 73.2663 83.5753 74.5986 83.6137C75.7976 83.5785 76.9923 83.7731 78.1174 84.1868C78.9263 84.4759 79.6425 84.9753 80.1915 85.6332C80.6071 86.1397 80.841 86.7696 80.8561 87.4233C80.8741 88.0606 80.7114 88.69 80.3866 89.2397C80.0394 89.7798 79.58 90.2399 79.0394 90.5889C78.2898 91.0733 77.5046 91.5007 76.6904 91.8675C76.4674 91.9668 76.236 92.0465 75.9991 92.1057C75.68 92.1938 75.4791 92.2497 75.3963 92.2733C74.557 92.52 73.8893 92.7258 73.3932 92.8906C72.9074 93.0506 72.4384 93.2573 71.9929 93.5079C75.8334 93.2961 78.8115 93.0609 80.927 92.8022Z" fill="black"/>
<path d="M89.741 93.3314C90.8045 93.308 91.5904 93.2845 92.0986 93.2609V96.5941H82.721V93.2609C83.9974 93.308 84.9606 93.3315 85.6105 93.3314V87.2468C85.1852 88.1758 84.3166 88.7755 83.0047 89.0458C82.9812 87.7732 82.8507 86.5048 82.6147 85.2539C83.2947 85.194 83.9614 85.0304 84.5914 84.7689C84.9181 84.6092 85.2125 84.391 85.4599 84.1253C85.6667 83.8902 85.8056 83.7315 85.8765 83.649V83.6137H89.741L89.741 93.3314Z" fill="black"/>
<path d="M125.88 83.1758H133.062H137.07V79.1879V72.043H133.062V79.1879H125.88V83.1758Z" fill="#010000"/>
<path d="M159.788 36.8294C160.297 37.3194 160.552 38.0459 160.552 39.009V42.82H158.987V39.2083C159.023 38.7339 158.875 38.2639 158.574 37.8943C158.421 37.7417 158.236 37.6234 158.034 37.5472C157.831 37.471 157.614 37.4386 157.397 37.4522C157.146 37.4392 156.895 37.4784 156.66 37.5674C156.425 37.6564 156.212 37.7932 156.033 37.969C155.675 38.3799 155.495 38.9149 155.532 39.4572V42.82H153.967V33.5789H155.532V36.9416C155.799 36.6622 156.127 36.4471 156.49 36.3127C156.896 36.1627 157.327 36.0888 157.76 36.0947C158.131 36.0773 158.5 36.1333 158.849 36.2594C159.197 36.3855 159.516 36.5793 159.788 36.8294Z" fill="#FF0000"/>
<path d="M169.289 36.1695V42.82H167.8V41.9731C167.546 42.2744 167.225 42.5113 166.861 42.6644C166.477 42.8278 166.064 42.9105 165.647 42.9071C164.753 42.9071 164.05 42.6601 163.537 42.1662C163.024 41.6723 162.767 40.9396 162.768 39.9681V36.1695H164.332V39.7563C164.295 40.2375 164.44 40.7153 164.739 41.0952C164.889 41.2472 165.07 41.3654 165.27 41.4417C165.469 41.518 165.683 41.5505 165.897 41.5372C166.143 41.5492 166.389 41.5093 166.619 41.4203C166.849 41.3312 167.057 41.195 167.23 41.0205C167.584 40.6078 167.762 40.0735 167.725 39.5322V36.1695H169.289Z" fill="black"/>
<path d="M182.058 36.8232C182.55 37.309 182.797 38.0376 182.797 39.009V42.82H181.232V39.2083C181.267 38.738 181.129 38.2711 180.844 37.8943C180.702 37.7431 180.529 37.625 180.336 37.5485C180.144 37.4721 179.936 37.4392 179.729 37.4522C179.494 37.4423 179.259 37.4834 179.04 37.5726C178.822 37.6618 178.626 37.7971 178.465 37.969C178.124 38.383 177.954 38.9106 177.989 39.4448V42.82H176.425V39.2083C176.459 38.738 176.322 38.2711 176.037 37.8942C175.896 37.7431 175.722 37.625 175.53 37.5485C175.337 37.4721 175.13 37.4392 174.923 37.4522C174.686 37.4409 174.45 37.4807 174.231 37.5688C174.012 37.657 173.814 37.7914 173.652 37.9628C173.313 38.38 173.145 38.9095 173.182 39.4448V42.82H171.618V36.1694H173.107V37.0163C173.36 36.7158 173.682 36.4807 174.046 36.3313C174.443 36.1695 174.869 36.089 175.298 36.0947C175.758 36.086 176.214 36.1818 176.631 36.3749C177.013 36.5558 177.333 36.8437 177.551 37.2032C177.834 36.849 178.199 36.5689 178.615 36.3874C179.069 36.1884 179.56 36.0886 180.055 36.0947C180.421 36.0756 180.787 36.1303 181.131 36.2555C181.475 36.3807 181.791 36.5738 182.058 36.8232Z" fill="black"/>
<path d="M185.15 34.8058C185.059 34.72 184.986 34.6167 184.937 34.5021C184.887 34.3876 184.862 34.2642 184.862 34.1395C184.862 34.0148 184.887 33.8914 184.937 33.7768C184.986 33.6623 185.059 33.559 185.15 33.4732C185.343 33.2941 185.599 33.1979 185.863 33.2053C186.125 33.1976 186.38 33.2889 186.577 33.4608C186.67 33.5399 186.743 33.6385 186.793 33.7494C186.843 33.8602 186.867 33.9807 186.865 34.1021C186.868 34.2304 186.844 34.3579 186.796 34.4767C186.748 34.5956 186.675 34.7034 186.583 34.7934C186.489 34.8864 186.376 34.9592 186.252 35.0074C186.129 35.0556 185.996 35.0782 185.864 35.0736C185.599 35.0811 185.343 34.9849 185.15 34.8058ZM185.075 36.1695H186.639V42.82H185.075V36.1695Z" fill="black"/>
<path d="M190.169 42.4712C189.634 42.1949 189.187 41.7741 188.88 41.257C188.576 40.7199 188.417 40.114 188.417 39.4978C188.417 38.8816 188.576 38.2758 188.88 37.7386C189.187 37.2255 189.631 36.8073 190.163 36.5306C190.741 36.2327 191.384 36.0829 192.035 36.0947C192.637 36.0814 193.233 36.2184 193.768 36.4934C194.254 36.748 194.646 37.1491 194.889 37.6391L193.687 38.3366C193.513 38.0466 193.265 37.808 192.967 37.6453C192.582 37.4485 192.144 37.3752 191.715 37.4354C191.286 37.4956 190.886 37.6864 190.57 37.9816C190.2 38.3994 189.995 38.9367 189.994 39.4935C189.993 40.0503 190.196 40.5885 190.564 41.0078C190.881 41.3031 191.282 41.4939 191.712 41.554C192.142 41.6142 192.581 41.5409 192.967 41.3441C193.265 41.1815 193.513 40.9429 193.687 40.6529L194.889 41.3503C194.638 41.8403 194.243 42.2423 193.756 42.5025C193.226 42.7803 192.634 42.9195 192.035 42.9071C191.386 42.9176 190.745 42.7679 190.169 42.4712Z" fill="black"/>
<path d="M154.042 50.8161C153.951 50.7303 153.879 50.6269 153.829 50.5124C153.78 50.3978 153.754 50.2744 153.754 50.1497C153.754 50.025 153.78 49.9017 153.829 49.7871C153.879 49.6725 153.951 49.5692 154.042 49.4834C154.236 49.3044 154.492 49.2082 154.756 49.2156C155.018 49.2079 155.273 49.2991 155.47 49.471C155.562 49.5502 155.636 49.6487 155.686 49.7596C155.736 49.8705 155.76 49.991 155.757 50.1124C155.76 50.2406 155.737 50.3681 155.689 50.487C155.64 50.6059 155.568 50.7136 155.476 50.8036C155.381 50.8967 155.269 50.9695 155.145 51.0177C155.021 51.0659 154.889 51.0884 154.756 51.0839C154.492 51.0913 154.236 50.9951 154.042 50.8161ZM153.967 52.1797H155.532V58.8302H153.967V52.1797Z" fill="#F15A24"/>
<path d="M163.681 52.8397C164.19 53.3297 164.445 54.0562 164.445 55.0192V58.8302H162.88V55.2185C162.916 54.7442 162.768 54.2742 162.467 53.9045C162.314 53.752 162.13 53.6337 161.927 53.5574C161.724 53.4812 161.507 53.4488 161.291 53.4625C161.039 53.4495 160.788 53.4887 160.553 53.5777C160.318 53.6667 160.105 53.8034 159.926 53.9792C159.568 54.3902 159.388 54.9251 159.425 55.4675V58.8302H157.86V52.1797H159.35V53.039C159.612 52.7294 159.948 52.4897 160.327 52.3416C160.749 52.1783 161.2 52.098 161.654 52.105C162.024 52.0876 162.393 52.1435 162.742 52.2697C163.09 52.3958 163.409 52.5896 163.681 52.8397Z" fill="black"/>
<path d="M172.531 52.8397C173.04 53.3297 173.295 54.0562 173.295 55.0192V58.8302H171.73V55.2185C171.766 54.7442 171.618 54.2742 171.317 53.9045C171.164 53.752 170.98 53.6337 170.777 53.5574C170.574 53.4812 170.357 53.4488 170.141 53.4625C169.89 53.4495 169.638 53.4887 169.403 53.5777C169.169 53.6667 168.955 53.8034 168.776 53.9792C168.418 54.3902 168.238 54.9251 168.275 55.4675V58.8302H166.71V52.1797H168.2V53.039C168.462 52.7294 168.798 52.4897 169.177 52.3416C169.599 52.1783 170.05 52.098 170.504 52.105C170.874 52.0876 171.244 52.1435 171.592 52.2697C171.94 52.3958 172.259 52.5896 172.531 52.8397Z" fill="black"/>
<path d="M176.8 58.4815C176.271 58.2034 175.83 57.7826 175.53 57.2673C175.23 56.7289 175.073 56.1235 175.073 55.5081C175.073 54.8927 175.23 54.2873 175.53 53.7489C175.832 53.2364 176.272 52.818 176.8 52.5409C177.369 52.2543 177.997 52.105 178.634 52.105C179.271 52.105 179.9 52.2543 180.468 52.5409C180.996 52.8181 181.436 53.2365 181.738 53.7489C182.038 54.2873 182.196 54.8926 182.196 55.5081C182.196 56.1236 182.038 56.7289 181.738 57.2673C181.438 57.7825 180.998 58.2033 180.468 58.4815C179.9 58.7681 179.271 58.9174 178.634 58.9174C177.997 58.9174 177.369 58.7681 176.8 58.4815ZM180.055 57.0119C180.418 56.5931 180.618 56.0583 180.618 55.505C180.618 54.9517 180.418 54.4169 180.055 53.9981C179.87 53.8095 179.648 53.6612 179.402 53.5626C179.156 53.464 178.893 53.4172 178.628 53.4252C178.364 53.4168 178.101 53.4634 177.857 53.5621C177.612 53.6607 177.391 53.8093 177.207 53.9981C176.847 54.4187 176.65 54.9528 176.65 55.505C176.65 56.0572 176.847 56.5913 177.207 57.0119C177.391 57.2008 177.612 57.3493 177.857 57.448C178.101 57.5466 178.364 57.5932 178.628 57.5847C178.893 57.5928 179.156 57.5461 179.402 57.4475C179.648 57.3488 179.87 57.2005 180.055 57.0119V57.0119Z" fill="black"/>
<path d="M190.044 52.1797L187.177 58.8302H185.562L182.696 52.1797H184.323L186.401 57.1116L188.542 52.1797H190.044Z" fill="black"/>
<path d="M195.896 52.8087C196.418 53.2778 196.678 53.9856 196.679 54.9321V58.8303H195.201V58.0208C195 58.3188 194.715 58.5506 194.382 58.687C193.974 58.8505 193.538 58.9289 193.099 58.9174C192.647 58.9271 192.199 58.8401 191.784 58.6622C191.433 58.5118 191.131 58.2658 190.914 57.9523C190.709 57.6487 190.602 57.2903 190.607 56.9247C190.598 56.6496 190.654 56.3761 190.77 56.1263C190.887 55.8765 191.06 55.6573 191.277 55.4864C191.723 55.1252 192.426 54.9446 193.386 54.9445H195.114V54.845C195.127 54.6469 195.096 54.4483 195.023 54.2633C194.951 54.0783 194.839 53.9113 194.694 53.774C194.34 53.5005 193.896 53.3673 193.449 53.4002C193.073 53.4003 192.699 53.4592 192.341 53.5747C192.006 53.6763 191.693 53.8412 191.421 54.0604L190.808 52.9271C191.187 52.6471 191.616 52.4401 192.072 52.3167C192.581 52.1734 193.108 52.1021 193.637 52.105C194.621 52.105 195.375 52.3396 195.896 52.8087ZM194.469 57.5162C194.768 57.3446 194.996 57.0734 195.114 56.7505V55.9783H193.499C192.598 55.9783 192.147 56.273 192.147 56.8625C192.143 56.9936 192.172 57.1237 192.231 57.2411C192.29 57.3585 192.377 57.4595 192.485 57.5351C192.763 57.7161 193.092 57.8033 193.424 57.7841C193.79 57.7908 194.152 57.6982 194.469 57.5162Z" fill="black"/>
<path d="M202.975 58.4691C202.777 58.6257 202.549 58.7402 202.305 58.8054C202.034 58.8812 201.754 58.9188 201.473 58.9174C200.852 58.957 200.24 58.7512 199.77 58.3445C199.37 57.9627 199.169 57.4065 199.169 56.6758V53.4749H198.068V52.2296H199.169V50.7101H200.734V52.2296H202.524V53.4749H200.734V56.6383C200.715 56.9065 200.8 57.1716 200.972 57.3792C201.062 57.468 201.17 57.5367 201.289 57.5807C201.407 57.6247 201.534 57.6431 201.66 57.6346C201.976 57.6459 202.285 57.5492 202.537 57.3606L202.975 58.4691Z" fill="black"/>
<path d="M204.615 50.8161C204.524 50.7303 204.451 50.6269 204.402 50.5124C204.352 50.3978 204.327 50.2744 204.327 50.1497C204.327 50.025 204.352 49.9017 204.402 49.7871C204.451 49.6725 204.524 49.5692 204.615 49.4834C204.808 49.3044 205.064 49.2082 205.328 49.2156C205.59 49.2079 205.845 49.2991 206.042 49.471C206.134 49.5502 206.208 49.6487 206.258 49.7596C206.308 49.8705 206.332 49.991 206.33 50.1124C206.333 50.2406 206.309 50.3681 206.261 50.487C206.212 50.6059 206.14 50.7136 206.048 50.8036C205.954 50.8967 205.841 50.9695 205.717 51.0177C205.594 51.0659 205.461 51.0884 205.328 51.0839C205.064 51.0913 204.808 50.9951 204.615 50.8161ZM204.539 52.1797H206.104V58.8302H204.539V52.1797Z" fill="black"/>
<path d="M214.692 52.1797L211.825 58.8302H210.21L207.344 52.1797H208.971L211.049 57.1116L213.19 52.1797H214.692Z" fill="black"/>
<path d="M222.015 56.0031H216.77C216.847 56.4701 217.106 56.8882 217.49 57.1677C217.911 57.4646 218.419 57.6155 218.935 57.5974C219.272 57.6082 219.607 57.5496 219.919 57.4252C220.231 57.3008 220.515 57.1135 220.751 56.8748L221.589 57.8339C221.284 58.1946 220.892 58.473 220.45 58.6433C219.886 58.8488 219.287 58.9403 218.687 58.9125C218.088 58.8847 217.499 58.7382 216.957 58.4815C216.417 58.2089 215.968 57.7874 215.662 57.2673C215.353 56.7315 215.195 56.1226 215.205 55.505C215.196 54.8929 215.349 54.2893 215.649 53.7551C215.938 53.2436 216.365 52.8229 216.882 52.5408C217.427 52.2456 218.04 52.0954 218.66 52.105C219.27 52.0947 219.872 52.2428 220.406 52.5346C220.914 52.8156 221.331 53.2347 221.608 53.7427C221.904 54.296 222.053 54.9156 222.04 55.5424C222.04 55.6504 222.032 55.804 222.015 56.0031ZM217.389 53.7926C217.04 54.0936 216.814 54.5128 216.757 54.9693H220.55C220.499 54.517 220.28 54.0998 219.937 53.7988C219.583 53.4956 219.127 53.3356 218.66 53.3505C218.196 53.3376 217.744 53.4949 217.389 53.7926Z" fill="black"/>
<path d="M157.986 74.4794C157.788 74.636 157.56 74.7504 157.316 74.8157C157.045 74.8914 156.765 74.9291 156.484 74.9276C155.862 74.9673 155.251 74.7614 154.781 74.3548C154.38 73.973 154.18 73.4168 154.18 72.686V69.4851H153.079V68.2399H154.18V66.7203H155.745V68.2399H157.535V69.4851H155.745V72.6486C155.726 72.9167 155.811 73.1819 155.983 73.3895C156.073 73.4782 156.181 73.5469 156.299 73.591C156.418 73.635 156.545 73.6534 156.671 73.6449C156.986 73.6562 157.296 73.5594 157.548 73.3709L157.986 74.4794Z" fill="#F4C500"/>
<path d="M165.585 72.0134H160.34C160.417 72.4804 160.675 72.8985 161.059 73.178C161.481 73.4748 161.989 73.6258 162.505 73.6076C162.841 73.6184 163.176 73.5598 163.489 73.4355C163.801 73.3111 164.084 73.1237 164.32 72.8851L165.159 73.8442C164.854 74.2049 164.462 74.4833 164.02 74.6536C163.456 74.859 162.857 74.9505 162.257 74.9227C161.657 74.895 161.069 74.7484 160.527 74.4918C159.987 74.2192 159.537 73.7976 159.232 73.2775C158.923 72.7418 158.765 72.1329 158.775 71.5152C158.766 70.9032 158.919 70.2996 159.219 69.7654C159.508 69.2539 159.935 68.8332 160.452 68.5511C160.997 68.2559 161.609 68.1057 162.23 68.1153C162.839 68.105 163.441 68.2531 163.976 68.5449C164.484 68.8259 164.901 69.2449 165.178 69.753C165.474 70.3062 165.623 70.9259 165.61 71.5527C165.61 71.6607 165.601 71.8143 165.585 72.0134ZM160.959 69.8028C160.609 70.1039 160.384 70.5231 160.327 70.9796H164.12C164.068 70.5273 163.85 70.1101 163.507 69.8091C163.152 69.5059 162.697 69.3459 162.23 69.3608C161.766 69.3478 161.314 69.5052 160.959 69.8028Z" fill="black"/>
<path d="M168.588 74.4918C168.053 74.2154 167.606 73.7946 167.299 73.2775C166.995 72.7404 166.836 72.1346 166.836 71.5183C166.836 70.9021 166.995 70.2963 167.299 69.7592C167.606 69.2461 168.05 68.8279 168.582 68.5511C169.16 68.2532 169.803 68.1034 170.454 68.1153C171.056 68.1019 171.652 68.239 172.187 68.5139C172.673 68.7686 173.065 69.1696 173.308 69.6596L172.106 70.3571C171.932 70.0671 171.684 69.8285 171.386 69.6658C171.001 69.469 170.563 69.3957 170.134 69.4559C169.705 69.5161 169.305 69.7069 168.989 70.0022C168.619 70.4199 168.414 70.9573 168.413 71.5141C168.412 72.0709 168.614 72.6091 168.983 73.0283C169.3 73.3236 169.701 73.5144 170.131 73.5746C170.561 73.6348 171 73.5615 171.386 73.3646C171.684 73.202 171.932 72.9634 172.106 72.6734L173.308 73.3709C173.057 73.8608 172.662 74.2629 172.175 74.523C171.645 74.8009 171.053 74.9401 170.454 74.9276C169.805 74.9381 169.164 74.7884 168.588 74.4918Z" fill="black"/>
<path d="M180.694 68.85C181.202 69.3399 181.457 70.0664 181.457 71.0295V74.8405H179.892V71.2288C179.928 70.7544 179.78 70.2845 179.479 69.9148C179.326 69.7622 179.142 69.6439 178.939 69.5677C178.736 69.4915 178.519 69.4591 178.303 69.4727C178.052 69.4597 177.801 69.499 177.566 69.5879C177.331 69.6769 177.117 69.8137 176.938 69.9895C176.58 70.4004 176.4 70.9354 176.437 71.4778V74.8405H174.873V65.5994H176.437V68.9621C176.704 68.6827 177.032 68.4676 177.395 68.3332C177.801 68.1832 178.232 68.1094 178.666 68.1153C179.036 68.0978 179.406 68.1538 179.754 68.2799C180.102 68.4061 180.421 68.5998 180.694 68.85Z" fill="black"/>
<path d="M189.544 68.85C190.053 69.34 190.307 70.0665 190.307 71.0295V74.8405H188.743V71.2288C188.778 70.7545 188.63 70.2845 188.329 69.9148C188.176 69.7623 187.992 69.6439 187.789 69.5677C187.586 69.4915 187.369 69.4591 187.153 69.4727C186.902 69.4597 186.651 69.499 186.416 69.588C186.181 69.6769 185.967 69.8137 185.788 69.9895C185.43 70.4005 185.25 70.9354 185.287 71.4778V74.8405H183.723V68.19H185.212V69.0493C185.474 68.7397 185.81 68.5 186.189 68.3518C186.612 68.1886 187.062 68.1083 187.516 68.1153C187.886 68.0979 188.256 68.1538 188.604 68.28C188.952 68.4061 189.271 68.5999 189.544 68.85Z" fill="black"/>
<path d="M193.812 74.4918C193.283 74.2136 192.842 73.7929 192.542 73.2775C192.242 72.7391 192.085 72.1338 192.085 71.5183C192.085 70.9029 192.242 70.2976 192.542 69.7592C192.844 69.2467 193.284 68.8283 193.812 68.5511C194.381 68.2646 195.009 68.1153 195.646 68.1153C196.284 68.1153 196.912 68.2646 197.48 68.5511C198.008 68.8284 198.448 69.2467 198.751 69.7592C199.05 70.2975 199.208 70.9029 199.208 71.5183C199.208 72.1338 199.05 72.7392 198.751 73.2775C198.45 73.7928 198.01 74.2136 197.48 74.4918C196.912 74.7783 196.284 74.9276 195.646 74.9276C195.009 74.9276 194.381 74.7783 193.812 74.4918ZM197.067 73.0221C197.431 72.6033 197.63 72.0685 197.63 71.5152C197.63 70.962 197.431 70.4272 197.067 70.0084C196.882 69.8198 196.66 69.6715 196.414 69.5729C196.168 69.4742 195.905 69.4275 195.64 69.4355C195.376 69.4271 195.113 69.4737 194.869 69.5723C194.624 69.671 194.403 69.8195 194.219 70.0084C193.86 70.4289 193.662 70.9631 193.662 71.5152C193.662 72.0674 193.86 72.6016 194.219 73.0221C194.403 73.211 194.624 73.3596 194.869 73.4582C195.113 73.5569 195.376 73.6035 195.64 73.595C195.905 73.6031 196.168 73.5563 196.414 73.4577C196.66 73.3591 196.882 73.2108 197.067 73.0221Z" fill="black"/>
<path d="M200.985 65.5994H202.55V74.8405H200.985V65.5994Z" fill="black"/>
<path d="M206.055 74.4918C205.525 74.2136 205.085 73.7929 204.784 73.2775C204.484 72.7391 204.327 72.1338 204.327 71.5183C204.327 70.9029 204.484 70.2976 204.784 69.7592C205.086 69.2467 205.526 68.8283 206.055 68.5511C206.623 68.2646 207.251 68.1153 207.889 68.1153C208.526 68.1153 209.154 68.2646 209.722 68.5511C210.251 68.8284 210.691 69.2467 210.993 69.7592C211.293 70.2975 211.45 70.9029 211.45 71.5183C211.45 72.1338 211.293 72.7392 210.993 73.2775C210.692 73.7928 210.252 74.2136 209.722 74.4918C209.154 74.7783 208.526 74.9276 207.889 74.9276C207.251 74.9276 206.623 74.7783 206.055 74.4918ZM209.309 73.0221C209.673 72.6033 209.873 72.0685 209.873 71.5152C209.873 70.962 209.673 70.4272 209.309 70.0084C209.124 69.8198 208.902 69.6715 208.656 69.5729C208.411 69.4742 208.147 69.4275 207.882 69.4355C207.618 69.4271 207.356 69.4737 207.111 69.5723C206.866 69.671 206.645 69.8195 206.461 70.0084C206.102 70.4289 205.904 70.9631 205.904 71.5152C205.904 72.0674 206.102 72.6016 206.461 73.0221C206.645 73.211 206.866 73.3596 207.111 73.4582C207.356 73.5569 207.618 73.6035 207.882 73.595C208.147 73.6031 208.411 73.5563 208.656 73.4577C208.902 73.3591 209.124 73.2108 209.309 73.0221Z" fill="black"/>
<path d="M219.862 68.19V73.8318C219.862 76.1731 218.66 77.3438 216.257 77.3437C215.639 77.3471 215.024 77.2654 214.429 77.1009C213.91 76.9671 213.424 76.7275 213.002 76.3973L213.703 75.2265C214.033 75.487 214.409 75.6836 214.811 75.8058C215.249 75.9497 215.708 76.0233 216.169 76.0237C216.904 76.0237 217.442 75.8577 217.784 75.5255C218.126 75.1932 218.297 74.6867 218.297 74.006V73.6573C218.028 73.9496 217.694 74.1757 217.321 74.3175C216.917 74.4705 216.488 74.5465 216.057 74.5416C215.458 74.5501 214.867 74.411 214.335 74.1368C213.832 73.8765 213.412 73.4819 213.121 72.9973C212.82 72.4885 212.666 71.9065 212.677 71.3159C212.665 70.7273 212.819 70.1473 213.121 69.641C213.412 69.16 213.833 68.7696 214.335 68.5139C214.868 68.2435 215.459 68.1067 216.057 68.1152C216.508 68.1094 216.956 68.1897 217.377 68.3518C217.766 68.5039 218.108 68.7527 218.373 69.0743V68.19L219.862 68.19ZM217.753 72.6922C217.941 72.5166 218.089 72.3029 218.188 72.0655C218.286 71.8281 218.332 71.5725 218.322 71.3159C218.331 71.0622 218.285 70.8096 218.187 70.5753C218.088 70.341 217.94 70.1306 217.753 69.9585C217.34 69.6204 216.823 69.4355 216.288 69.4355C215.754 69.4355 215.236 69.6204 214.824 69.9585C214.636 70.1306 214.488 70.3409 214.39 70.5752C214.291 70.8095 214.245 71.0622 214.254 71.3159C214.245 71.5725 214.291 71.8281 214.389 72.0655C214.487 72.303 214.635 72.5167 214.824 72.6922C215.234 73.0341 215.753 73.2214 216.288 73.2214C216.824 73.2214 217.342 73.0341 217.753 72.6922Z" fill="black"/>
<path d="M221.907 66.8415C221.816 66.7557 221.744 66.6523 221.694 66.5378C221.645 66.4232 221.619 66.2998 221.619 66.1751C221.619 66.0504 221.645 65.927 221.694 65.8125C221.744 65.6979 221.816 65.5946 221.907 65.5088C222.1 65.3298 222.357 65.2336 222.621 65.241C222.883 65.2333 223.138 65.3245 223.334 65.4964C223.427 65.5756 223.501 65.6741 223.551 65.785C223.6 65.8959 223.625 66.0164 223.622 66.1378C223.625 66.266 223.602 66.3935 223.553 66.5124C223.505 66.6313 223.432 66.739 223.341 66.829C223.246 66.9221 223.134 66.9949 223.01 67.0431C222.886 67.0913 222.754 67.1138 222.621 67.1093C222.357 67.1167 222.1 67.0205 221.907 66.8415ZM221.832 68.2051H223.397V74.8557H221.832V68.2051Z" fill="black"/>
<path d="M231.771 72.0285H226.526C226.604 72.4955 226.862 72.9136 227.246 73.1931C227.668 73.49 228.175 73.6409 228.692 73.6228C229.028 73.6336 229.363 73.575 229.675 73.4506C229.988 73.3262 230.271 73.1389 230.507 72.9002L231.345 73.8593C231.04 74.2201 230.648 74.4984 230.206 74.6687C229.643 74.8742 229.043 74.9657 228.444 74.9379C227.844 74.9101 227.256 74.7636 226.714 74.5069C226.174 74.2343 225.724 73.8128 225.418 73.2927C225.109 72.7569 224.951 72.148 224.961 71.5304C224.952 70.9184 225.105 70.3148 225.406 69.7805C225.695 69.269 226.122 68.8484 226.639 68.5663C227.184 68.271 227.796 68.1209 228.416 68.1304C229.026 68.1202 229.628 68.2682 230.163 68.5601C230.67 68.8411 231.087 69.2601 231.364 69.7681C231.661 70.3214 231.809 70.9411 231.796 71.5679C231.796 71.6758 231.788 71.8294 231.771 72.0285ZM227.146 69.818C226.796 70.119 226.571 70.5383 226.514 70.9948H230.307C230.255 70.5424 230.036 70.1253 229.693 69.8242C229.339 69.521 228.883 69.361 228.416 69.3759C227.953 69.363 227.5 69.5203 227.146 69.818Z" fill="black"/>
<path d="M233.836 74.7311C233.396 74.6239 232.977 74.4429 232.597 74.1957L233.198 73.0125C233.532 73.2268 233.897 73.3885 234.281 73.492C234.685 73.6099 235.105 73.6707 235.526 73.6725C236.461 73.6725 236.928 73.4276 236.928 72.9378C236.932 72.8289 236.898 72.7221 236.834 72.6342C236.769 72.5463 236.677 72.4822 236.572 72.452C236.199 72.3287 235.815 72.2411 235.426 72.1904C234.971 72.1282 234.521 72.0325 234.081 71.9039C233.735 71.797 233.424 71.6016 233.179 71.3373C232.909 71.0253 232.772 70.621 232.798 70.2102C232.791 69.9118 232.861 69.6166 233 69.3521C233.139 69.0875 233.342 68.8622 233.592 68.6971C234.122 68.3193 234.838 68.1304 235.739 68.1304C236.203 68.1309 236.664 68.1831 237.116 68.286C237.511 68.3659 237.891 68.5067 238.243 68.7033L237.642 69.8865C237.061 69.5508 236.399 69.3786 235.727 69.3883C235.366 69.3673 235.007 69.438 234.681 69.5938C234.577 69.642 234.488 69.7182 234.425 69.814C234.362 69.9097 234.327 70.021 234.325 70.1354C234.322 70.253 234.358 70.3682 234.426 70.4637C234.495 70.5592 234.594 70.6298 234.706 70.6649C235.09 70.8017 235.486 70.8997 235.889 70.9575C236.334 71.0209 236.773 71.1166 237.204 71.244C237.54 71.3484 237.844 71.5371 238.086 71.792C238.349 72.0951 238.481 72.4886 238.456 72.8878C238.46 73.1855 238.388 73.4793 238.245 73.741C238.103 74.0028 237.895 74.2236 237.642 74.3823C237.099 74.7561 236.361 74.9429 235.426 74.9428C234.889 74.9435 234.354 74.8723 233.836 74.7311Z" fill="black"/>
<defs>
<linearGradient id="paint0_linear" x1="58.493" y1="9.16781" x2="104.746" y2="80.9597" gradientUnits="userSpaceOnUse">
<stop offset="0.33175" stop-color="#FF0000"/>
<stop offset="0.5711" stop-color="#F15A24"/>
<stop offset="0.77601" stop-color="#FCEE21"/>
</linearGradient>
<linearGradient id="paint1_linear" x1="58.4931" y1="9.16784" x2="104.746" y2="80.9597" gradientUnits="userSpaceOnUse">
<stop offset="0.33175" stop-color="#FF0000"/>
<stop offset="0.5711" stop-color="#F15A24"/>
<stop offset="0.77601" stop-color="#FCEE21"/>
</linearGradient>
<linearGradient id="paint2_linear" x1="58.4931" y1="9.1678" x2="104.746" y2="80.9597" gradientUnits="userSpaceOnUse">
<stop offset="0.33175" stop-color="#FF0000"/>
<stop offset="0.5711" stop-color="#F15A24"/>
<stop offset="0.77601" stop-color="#FCEE21"/>
</linearGradient>
</defs>
</svg>
